<svg aria-hidden="true" style="position: absolute; width: 0; height: 0; overflow: hidden;" version="1.1" xmlns="http://www.w3.org/2000/svg" xmlns:xlink="http://www.w3.org/1999/xlink">
<defs>
<symbol id="car" viewBox="0 0 41 32">
<path d="M30.118 5.647h5.647l5.647 7.635v11.189h-3.831c-0.224 1.57-1.007 3.007-2.205 4.047s-2.731 1.612-4.318 1.612-3.119-0.572-4.318-1.612c-1.198-1.039-1.981-2.476-2.205-4.047h-9.544c-0.224 1.57-1.007 3.007-2.205 4.047s-2.731 1.612-4.317 1.612-3.119-0.572-4.317-1.612c-1.198-1.039-1.981-2.476-2.205-4.047h-1.948v-22.588c0-0.499 0.198-0.978 0.551-1.331s0.832-0.551 1.331-0.551h26.353c0.499 0 0.978 0.198 1.331 0.551s0.551 0.832 0.551 1.331v3.765zM30.118 9.412v5.647h7.529v-0.536l-3.78-5.111h-3.75z"></path>
</symbol>
<symbol id="email" viewBox="0 0 40 32">
<path d="M40 4c0-2.2-1.8-4-4-4h-32c-2.2 0-4 1.8-4 4v24c0 2.2 1.8 4 4 4h32c2.2 0 4-1.8 4-4v-24zM36 4l-16 10-16-10h32zM36 28h-32v-20l16 10 16-10v20z"></path>
</symbol>
<symbol id="evenodd" viewBox="0 0 32 32">
<path d="M16 0l-2.82 2.82 11.16 11.18h-24.34v4h24.34l-11.16 11.18 2.82 2.82 16-16-16-16z"></path>
</symbol>
<symbol id="heart" viewBox="0 0 34 32">
<path d="M16.844 2.575c3.956-3.552 10.070-3.434 13.881 0.384 3.81 3.82 3.941 9.903 0.397 13.871l-14.282 14.302-14.279-14.302c-3.544-3.968-3.411-10.061 0.397-13.871 3.815-3.813 9.917-3.941 13.885-0.384z"></path>
</symbol>
<symbol id="instagram" viewBox="0 0 32 32">
<path d="M16 10.873c-2.823 0-5.127 2.304-5.127 5.127s2.304 5.127 5.127 5.127c2.823 0 5.127-2.304 5.127-5.127s-2.304-5.127-5.127-5.127zM31.377 16c0-2.123 0.019-4.227-0.1-6.346-0.119-2.462-0.681-4.646-2.481-6.446-1.804-1.804-3.985-2.362-6.446-2.481-2.123-0.119-4.227-0.1-6.346-0.1-2.123 0-4.227-0.019-6.346 0.1-2.462 0.119-4.646 0.681-6.446 2.481-1.804 1.804-2.362 3.985-2.481 6.446-0.119 2.123-0.1 4.227-0.1 6.346s-0.019 4.227 0.1 6.346c0.119 2.462 0.681 4.646 2.481 6.446 1.804 1.804 3.985 2.362 6.446 2.481 2.123 0.119 4.227 0.1 6.346 0.1 2.123 0 4.227 0.019 6.346-0.1 2.462-0.119 4.646-0.681 6.446-2.481 1.804-1.804 2.362-3.985 2.481-6.446 0.123-2.119 0.1-4.223 0.1-6.346zM16 23.888c-4.365 0-7.888-3.523-7.888-7.888s3.523-7.889 7.888-7.889c4.365 0 7.889 3.523 7.889 7.889s-3.523 7.888-7.889 7.888zM24.211 9.631c-1.019 0-1.842-0.823-1.842-1.842s0.823-1.842 1.842-1.842c1.019 0 1.842 0.823 1.842 1.842 0 0.242-0.047 0.482-0.14 0.705s-0.228 0.427-0.399 0.598c-0.171 0.171-0.374 0.307-0.598 0.399s-0.463 0.14-0.705 0.14z"></path>
</symbol>
<symbol id="location" viewBox="0 0 22 32">
<path d="M11.2 0c6.192 0 11.2 5.008 11.2 11.2 0 8.4-11.2 20.8-11.2 20.8s-11.2-12.4-11.2-20.8c0-6.192 5.008-11.2 11.2-11.2zM3.2 11.2c0 4.56 4.672 11.536 8 15.808 3.392-4.304 8-11.2 8-15.808 0-4.416-3.584-8-8-8s-8 3.584-8 8zM11.2 15.2c-2.209 0-4-1.791-4-4s1.791-4 4-4c2.209 0 4 1.791 4 4s-1.791 4-4 4z"></path>
</symbol>
<symbol id="moto" viewBox="0 0 32 32">
<path d="M21.333 0c0.842 0 1.524 0.682 1.524 1.524v1.524h7.619v9.143h-3.077l4.185 11.497c0.268 0.687 0.416 1.435 0.416 2.217 0 3.366-2.729 6.095-6.095 6.095-2.84 0-5.227-1.943-5.903-4.571h-6.479c-0.677 2.629-3.063 4.571-5.903 4.571-2.963 0-5.432-2.114-5.981-4.916-0.973-0.509-1.638-1.528-1.638-2.703v-15.238c0-0.842 0.682-1.524 1.524-1.524h10.667c0.842 0 1.524 0.682 1.524 1.524v7.619c0 0.842 0.682 1.524 1.524 1.524h3.048c0.842 0 1.524-0.682 1.524-1.524v-13.714h-4.571v-3.048h6.095zM25.905 22.857c-1.683 0-3.048 1.364-3.048 3.048s1.364 3.048 3.048 3.048c1.683 0 3.048-1.364 3.048-3.048 0-0.366-0.065-0.717-0.183-1.043l-0.025-0.066c-0.443-1.135-1.548-1.939-2.84-1.939zM7.619 22.857c-1.683 0-3.048 1.364-3.048 3.048s1.364 3.048 3.048 3.048c1.683 0 3.048-1.364 3.048-3.048s-1.364-3.048-3.048-3.048zM10.667 10.667h-7.619v3.048h7.619v-3.048zM27.429 6.095h-4.571v3.048h4.571v-3.048z"></path>
</symbol>
<symbol id="phone" viewBox="0 0 32 32">
<path d="M6.293 3.556c0.107 1.582 0.373 3.129 0.8 4.604l-2.133 2.133c-0.729-2.133-1.191-4.391-1.351-6.738h2.684zM23.822 24.924c1.511 0.427 3.058 0.693 4.622 0.8v2.649c-2.347-0.16-4.604-0.622-6.756-1.333l2.133-2.116zM8 0h-6.222c-0.978 0-1.778 0.8-1.778 1.778 0 16.693 13.529 30.222 30.222 30.222 0.978 0 1.778-0.8 1.778-1.778v-6.204c0-0.978-0.8-1.778-1.778-1.778-2.204 0-4.356-0.356-6.347-1.013-0.178-0.071-0.373-0.089-0.551-0.089-0.462 0-0.907 0.178-1.262 0.516l-3.911 3.911c-5.031-2.578-9.156-6.684-11.716-11.716l3.911-3.911c0.498-0.498 0.64-1.191 0.444-1.813-0.658-1.991-1.013-4.124-1.013-6.347 0-0.978-0.8-1.778-1.778-1.778z"></path>
</symbol>
<symbol id="star" viewBox="0 0 32 32">
<path d="M25.206 19.609c-0.403 0.39-0.588 0.955-0.496 1.509l1.383 7.653c0.117 0.649-0.157 1.305-0.7 1.68-0.532 0.389-1.24 0.435-1.82 0.125l-6.89-3.593c-0.24-0.128-0.506-0.196-0.778-0.204h-0.422c-0.146 0.022-0.289 0.068-0.42 0.14l-6.891 3.61c-0.341 0.171-0.726 0.232-1.104 0.171-0.921-0.174-1.535-1.051-1.384-1.977l1.384-7.653c0.092-0.558-0.093-1.126-0.496-1.523l-5.617-5.444c-0.47-0.456-0.633-1.14-0.418-1.758 0.208-0.616 0.74-1.066 1.383-1.167l7.731-1.122c0.588-0.061 1.104-0.418 1.369-0.947l3.407-6.984c0.081-0.156 0.185-0.299 0.311-0.42l0.14-0.109c0.073-0.081 0.157-0.148 0.25-0.202l0.17-0.062 0.264-0.109h0.655c0.585 0.061 1.1 0.411 1.369 0.933l3.452 6.953c0.249 0.509 0.733 0.862 1.291 0.947l7.731 1.122c0.653 0.093 1.199 0.544 1.415 1.167 0.204 0.624 0.028 1.308-0.451 1.758l-5.818 5.507z"></path>
</symbol>
<symbol id="twitter" viewBox="0 0 38 32">
<path d="M37.568 4.409c-1.37 0.607-2.842 1.017-4.39 1.203 1.597-0.955 2.791-2.459 3.361-4.231-1.5 0.891-3.142 1.518-4.854 1.854-1.151-1.229-2.676-2.044-4.338-2.318s-3.368 0.009-4.853 0.804c-1.485 0.795-2.666 2.058-3.359 3.593s-0.861 3.256-0.476 4.896c-3.040-0.153-6.013-0.943-8.728-2.319s-5.109-3.308-7.029-5.67c-0.656 1.132-1.034 2.445-1.034 3.843-0.001 1.259 0.309 2.498 0.902 3.608s1.451 2.057 2.498 2.756c-1.214-0.039-2.401-0.367-3.463-0.957v0.098c-0 1.765 0.611 3.476 1.728 4.843s2.674 2.304 4.404 2.654c-1.126 0.305-2.307 0.35-3.453 0.131 0.488 1.519 1.439 2.847 2.72 3.799s2.827 1.479 4.422 1.508c-2.708 2.126-6.052 3.279-9.495 3.274-0.61 0-1.219-0.035-1.825-0.107 3.495 2.247 7.562 3.439 11.717 3.435 14.064 0 21.752-11.648 21.752-21.75 0-0.328-0.008-0.66-0.023-0.988 1.495-1.081 2.786-2.421 3.812-3.955l0.003-0.005z"></path>
</symbol>
<symbol id="youtube" viewBox="0 0 43 32">
<path d="M21.469 1.331h0.237c2.192 0.008 13.299 0.088 16.293 0.893 0.905 0.246 1.73 0.725 2.392 1.389s1.138 1.491 1.381 2.397c0.269 1.013 0.459 2.355 0.587 3.739l0.027 0.277 0.059 0.693 0.021 0.277c0.173 2.437 0.195 4.72 0.197 5.219v0.2c-0.003 0.517-0.027 2.955-0.219 5.493l-0.021 0.28-0.024 0.277c-0.133 1.525-0.331 3.040-0.627 4.155-0.242 0.907-0.718 1.734-1.38 2.398s-1.488 1.143-2.393 1.388c-3.093 0.832-14.851 0.891-16.48 0.893h-0.379c-0.824 0-4.232-0.016-7.805-0.139l-0.453-0.016-0.232-0.011-0.912-0.037c-2.96-0.131-5.779-0.341-7.077-0.693-0.905-0.245-1.731-0.723-2.393-1.387s-1.138-1.491-1.381-2.397c-0.296-1.112-0.493-2.629-0.627-4.155l-0.021-0.28-0.021-0.277c-0.132-1.807-0.205-3.618-0.219-5.429v-0.325c0.005-0.573 0.027-2.555 0.171-4.741l0.019-0.275 0.008-0.139 0.021-0.277 0.059-0.693 0.027-0.277c0.128-1.384 0.317-2.728 0.587-3.739 0.242-0.907 0.718-1.734 1.38-2.398s1.488-1.143 2.393-1.388c1.299-0.347 4.117-0.56 7.077-0.693l0.453-0.019 0.688-0.024 0.456-0.019c2.538-0.083 5.077-0.129 7.616-0.139h0.515v-0.003zM17.067 9.891v12.848l11.085-6.421-11.085-6.427z"></path>
</symbol>
</defs>
</svg>
